# xmcd
#
# Track frame offsets: 
#        150
#        23170
#        39442
#        60382
#        75227
#        88492
#        109411
#        131202
#        153853
#        173313
#        190764
#        212437
#        235163
#
# Disc length: 3453 seconds
#
# Revision: 0
# Processed by: cddbd v1.5.2PL0 Copyright (c) Steve Scherf et al.
# Submitted via: ExactAudioCopy v1.0b3
#
DISCID=9a0d7b0d
DTITLE=Сергей Дроздов - Блюз Моей Души
DYEAR=2010
DGENRE=Blues
TTITLE0=Блюз Памяти
TTITLE1=Да Да Да
TTITLE2=Не Зови Меня
TTITLE3=Любовь Моя
TTITLE4=Жаль
TTITLE5=Не Молчи
TTITLE6=Без Любви
TTITLE7=Забудь Меня
TTITLE8=К пропасти
TTITLE9=Тоска
TTITLE10=Зачем
TTITLE11=Я Вернулся
TTITLE12=Не надо Войны
EXTD=
EXTT0=
EXTT1=
EXTT2=
EXTT3=
EXTT4=
EXTT5=
EXTT6=
EXTT7=
EXTT8=
EXTT9=
EXTT10=
EXTT11=
EXTT12=
PLAYORDER=
